# xmcd
#
# Track frame offsets:
#	150
#	12869
#	36406
#	91186
#	125448
#	169049
#	202132
#	218910
#	242443
#	297219
#
# Disc length: 4399 seconds
#
# Revision: 0
# Processed by: cddbd v1.5.2PL0 Copyright (c) Steve Scherf et al.
# Submitted via: SynApp - FreeCDDB Version: 2.4
#
DISCID=89112d0a
DTITLE=Mogul Thrash - Mogul Thrash - Mogul Thrash
DYEAR=1970
DGENRE=Rock
TTITLE0=Sleeping in the kitchen
TTITLE1=Dreams of Galss and sand
TTITLE2=Going North, going West
TTITLE3=Somethind sad
TTITLE4=Elegy
TTITLE5=What's this I hear
TTITLE6=St. Peter
TTITLE7=Dreams of Glass and Sand ( Edited Version )
TTITLE8=Going North, going West ( Edited Version )
TTITLE9=Something sad ( Edited Version )
EXTD=
EXTT0=
EXTT1=
EXTT2=
EXTT3=
EXTT4=
EXTT5=
EXTT6=
EXTT7=
EXTT8=
EXTT9=
PLAYORDER=
